<svg width="68" height="84" viewBox="0 0 68 84" fill="none" xmlns="http://www.w3.org/2000/svg">
<path fill-rule="evenodd" clip-rule="evenodd" d="M18.9471 24.8899C22.3816 25.1758 26.2348 25.4965 27.7874 28.2734C28.9825 30.4099 30.3182 30.2062 29.9833 28.8073C29.8918 28.4253 29.9248 28.0593 30.1475 27.7754C30.3701 27.4915 30.7332 27.3339 31.1275 27.349C31.5076 27.3632 31.9199 27.5594 32.1972 27.965C32.4802 28.3763 32.7197 28.8262 33.0131 29.212C33.2451 29.2044 33.4791 29.2007 33.713 29.2007C44.885 29.2007 53.9413 38.257 53.9413 49.429C53.9413 51.5834 53.1056 53.2369 55.3006 50.758C56.507 49.395 57.4644 47.5962 57.4823 45.4918C57.4889 44.6872 57.3588 43.8298 57.0522 42.9223C56.0882 40.068 57.355 38.1315 58.6756 36.1101C61.7761 31.3664 59.4792 27.1717 55.8863 24.0316C49.9589 18.8521 42.2024 15.7139 33.7121 15.7139C27.2969 15.7139 21.3015 17.5051 16.1966 20.6151C15.3533 21.1282 14.012 23.3402 15.2731 24.1089C16.0485 24.5815 17.1964 24.7447 18.9462 24.8909L18.9471 24.8899ZM54.662 38.0287C55.4345 38.0287 56.0637 38.6154 56.0637 39.3379C56.0637 40.0624 55.4354 40.6491 54.662 40.6491C53.8894 40.6491 53.2612 40.0624 53.2612 39.3379C53.2612 38.6154 53.8885 38.0287 54.662 38.0287ZM44.8982 30.6099C44.336 30.6486 43.8795 30.2826 43.8795 29.7676C43.8795 29.2516 44.3351 28.7262 44.8982 28.7007C45.4614 28.6753 45.917 29.1252 45.917 29.6525C45.917 30.1779 45.4604 30.6061 44.8982 30.6099ZM50.6088 32.6568C48.8382 32.653 47.4026 31.1372 47.4026 29.6166C47.4026 28.0914 48.8382 26.6793 50.6088 26.6557C52.3793 26.6322 53.8149 27.9989 53.8149 29.6572C53.8149 31.3136 52.3793 32.6568 50.6088 32.6568ZM52.7962 33.9679C52.7962 33.2435 53.4225 32.6568 54.1969 32.6568C54.9704 32.6568 55.5967 33.2435 55.5967 33.9679C55.5967 34.6924 54.9704 35.2791 54.1969 35.2791C53.4225 35.2791 52.7962 34.6924 52.7962 33.9679ZM54.6856 44.224C54.7733 43.6119 55.2119 43.2666 55.643 43.443C56.0721 43.6194 56.2231 44.2071 56.0344 44.7777C55.8533 45.3512 55.4317 45.704 55.1044 45.5701C54.777 45.4352 54.5978 44.8362 54.6865 44.224H54.6856ZM32.0887 26.5454C31.5322 26.1756 31.3001 25.5927 31.4246 25.0748C31.5491 24.5579 32.0208 24.1429 32.6726 24.1165C33.2942 24.0919 34.0309 24.6343 34.9524 24.856C35.874 25.0777 36.7767 24.9286 37.3191 25.2342C37.8879 25.554 38.1199 26.1388 37.9954 26.6557C37.8709 27.1736 37.3983 27.5867 36.7343 27.6622C36.1023 27.7348 35.2892 27.4405 34.411 27.1038C33.4744 27.0047 32.6169 26.8953 32.0878 26.5435L32.0887 26.5454ZM44.8992 26.2067C44.8992 25.8747 45.3557 25.5059 45.9179 25.3644C46.4801 25.2229 46.9366 25.4795 46.9366 25.9172C46.9366 26.352 46.4801 26.6925 45.9179 26.7312C45.3557 26.7784 44.8992 26.5378 44.8992 26.2058V26.2067ZM53.265 26.0247C52.7028 26.0247 52.2463 25.5965 52.2463 25.0711C52.2463 24.5438 52.7019 24.1174 53.265 24.1174C53.8272 24.1174 54.2837 24.5438 54.2837 25.0711C54.2837 25.5965 53.8272 26.0247 53.265 26.0247ZM25.6754 21.3782C25.2774 21.747 24.5709 21.9573 23.7965 22.1696C23.1032 22.5752 22.458 22.9336 21.9165 22.96C21.3477 22.9874 20.8931 22.7044 20.7167 22.2856C20.5403 21.8677 20.6544 21.3433 21.0902 20.9961C21.5053 20.6651 22.2863 20.6651 23.0315 20.351C23.7766 20.0378 24.3228 19.4784 24.8491 19.4134C25.4019 19.3454 25.8565 19.6303 26.0329 20.0482C26.2093 20.467 26.0933 20.9895 25.6754 21.3772V21.3782ZM48.5732 24.2334C48.5732 23.7175 49.0288 23.1921 49.5919 23.1666C50.155 23.1402 50.6106 23.5911 50.6106 24.1184C50.6106 24.6438 50.1541 25.072 49.5919 25.0758C49.0297 25.1144 48.5732 24.7485 48.5732 24.2334ZM41.626 21.5517C40.7969 21.2527 39.9763 21.1546 39.4084 20.9999C38.85 20.8471 38.6519 20.4104 38.8312 20.0123C39.0075 19.6133 39.5075 19.3285 40.1838 19.286C40.8214 19.2455 41.6232 19.4775 42.4401 19.8237C43.257 20.1699 43.9097 20.6622 44.3096 21.1641C44.7096 21.6659 44.8765 22.1384 44.7002 22.4978C44.5228 22.8572 44.0304 23.0779 43.4701 22.8968C42.9212 22.7186 42.3231 22.1281 41.626 21.5517ZM32.5273 20.2198C31.5161 19.9133 30.6295 20.1491 29.988 20.5839C29.3598 21.0094 28.9401 20.8122 28.9203 20.3547C28.9005 19.8972 29.2636 19.3473 29.9098 18.787C30.5229 18.255 31.402 17.6315 32.4075 17.4608C33.413 17.2901 34.2978 17.8381 34.9968 18.2663C35.642 18.6606 36.0881 19.0276 36.108 19.485C36.1278 19.9425 35.7571 20.416 35.0996 20.6424C34.4667 20.8594 33.5451 20.7188 32.5264 20.2217L32.5273 20.2198Z" fill="#F58634"/>
<path fill-rule="evenodd" clip-rule="evenodd" d="M60.6637 37.4099C59.6639 38.9398 58.7055 40.4066 59.3007 42.1686C59.6931 43.3317 59.8601 44.4485 59.8516 45.5097C59.828 48.2744 58.6102 50.5939 57.0746 52.3276C55.7342 53.8415 53.3817 54.5678 52.6988 56.4204C51.7725 58.9352 50.3605 61.215 48.5767 63.1468C46.56 65.3314 46.3619 64.3806 48.705 66.7444L54.2646 72.3559C56.3492 74.4604 55.8974 74.9744 57.8981 72.9153C63.7954 66.8435 67.4269 58.5588 67.4269 49.4261C67.4269 43.759 66.029 38.4182 63.5586 33.7302C62.3814 31.4965 62.6446 34.3773 60.6647 37.408L60.6637 37.4099ZM54.4523 56.7628C54.4523 56.1827 54.9636 55.5932 55.5965 55.5639C56.2285 55.5347 56.7407 56.0403 56.7407 56.6326C56.7407 57.2222 56.2285 57.7032 55.5965 57.708C54.9645 57.7514 54.4523 57.3401 54.4523 56.7619V56.7628ZM53.5525 61.7272C53.7581 61.3556 54.1873 61.3659 54.5325 61.9781C54.8843 62.6035 55.522 63.1648 56.487 63.3279C57.5368 63.3364 58.3584 63.5996 58.7932 64.041C59.2451 64.4995 59.3573 65.0447 59.1517 65.4163C58.947 65.787 58.4244 65.9068 57.7273 65.9672C56.9718 66.0332 56.0115 66.1219 55.2484 65.5654C54.4853 65.0088 54.0147 64.1288 53.7251 63.4345C53.4204 62.7035 53.3468 62.097 53.5515 61.7263L53.5525 61.7272ZM62.5191 40.5141C62.288 40.3783 62.1899 39.9859 62.1899 39.6124C62.1899 39.2398 62.339 38.9313 62.5191 38.604C62.7465 38.1918 62.9445 37.4712 63.3143 37.4617C63.6841 37.4523 63.8831 38.1635 64.1095 38.588C64.2906 38.9276 64.4387 39.2398 64.4387 39.6124C64.4387 39.9859 64.3396 40.3755 64.1095 40.5104C63.9255 40.6179 63.6246 40.8688 63.3143 41.3376C63.004 40.8716 62.7021 40.6226 62.5191 40.5141ZM52.6969 66.586C53.3289 66.5567 53.8411 67.0623 53.8411 67.6547C53.8411 68.2442 53.3289 68.7253 52.6969 68.73C52.0649 68.7734 51.5527 68.3621 51.5527 67.7839C51.5527 67.2038 52.064 66.6143 52.6969 66.585V66.586ZM51.5527 62.9044C52.1847 62.8752 52.6969 63.3808 52.6969 63.9731C52.6969 64.5627 52.1847 65.0437 51.5527 65.0494C50.9207 65.0928 50.4086 64.6806 50.4086 64.1033C50.4086 63.5232 50.9198 62.9337 51.5527 62.9044ZM58.8083 56.9345C59.1828 56.5345 59.7073 56.4619 60.1044 56.6666C60.5015 56.8713 60.7449 57.3401 60.6741 57.8966C60.6071 58.4267 60.2053 59.0323 59.7544 59.6822C59.4865 60.4274 59.2262 61.1056 58.8329 61.4678C58.4197 61.8489 57.8981 61.9215 57.5 61.7168C57.1029 61.5121 56.8577 61.0434 56.9671 60.5057C57.0708 59.9935 57.6613 59.5002 58.0273 58.7918C58.3924 58.0834 58.4508 57.3165 58.8083 56.9345ZM57.2906 67.0623C57.9226 67.0331 58.4348 67.5387 58.4348 68.131C58.4348 68.7206 57.9226 69.2016 57.2906 69.2064C56.6586 69.2498 56.1464 68.8385 56.1464 68.2603C56.1464 67.6802 56.6586 67.0906 57.2906 67.0614V67.0623ZM62.1739 54.132C62.1739 53.6906 62.3192 53.3925 62.5531 53.269C62.788 53.1444 63.0134 52.1569 63.4699 52.3465C63.9265 52.536 64.1519 53.1426 64.3868 53.268C64.6217 53.3935 64.7669 53.6915 64.7669 54.133C64.7669 54.5744 64.6217 55.0763 64.3868 55.53C64.1529 55.9837 63.8284 56.4449 63.4699 56.6383C63.1115 56.444 62.787 55.9827 62.5531 55.53C62.3192 55.0763 62.1739 54.5744 62.1739 54.133V54.132ZM62.189 59.3294C62.821 59.3002 63.3332 59.8058 63.3332 60.3982C63.3332 60.9877 62.821 61.4688 62.189 61.4735C61.557 61.5169 61.0448 61.1056 61.0448 60.5274C61.0448 59.9473 61.557 59.3577 62.189 59.3285V59.3294ZM62.5022 43.5571C62.5022 43.1157 62.6474 42.8176 62.8813 42.694C63.1162 42.5695 63.3917 42.8676 63.7982 42.8666C64.2047 42.8657 64.4802 42.5686 64.715 42.6931C64.9499 42.8176 65.0952 43.1157 65.0952 43.5571C65.0952 43.9986 64.9499 44.5013 64.715 44.9541C64.4811 45.4068 64.1566 45.869 63.7982 46.0624C63.4398 45.8681 63.1153 45.4059 62.8813 44.9531C62.6465 44.4994 62.5022 43.9976 62.5022 43.5562V43.5571ZM64.4387 47.3877C64.8084 47.3783 65.0046 48.1178 65.2338 48.5677C65.4121 48.9177 65.563 49.1658 65.563 49.5383C65.563 49.9119 65.4489 50.4778 65.2338 50.7486C65.0424 50.9891 64.749 51.2013 64.4387 51.2626C64.1283 51.207 63.8718 50.9599 63.6435 50.725C63.4624 50.5392 63.3143 49.9109 63.3143 49.5374C63.3143 49.1648 63.4577 48.945 63.6435 48.5781C63.8652 48.1423 64.0689 47.3971 64.4387 47.3868V47.3877Z" fill="#E47833"/>
<path fill-rule="evenodd" clip-rule="evenodd" d="M52.6199 77.347C51.7662 72.7702 46.4236 69.9489 44.6719 66.4343C43.6466 67.0965 42.5571 67.6691 41.4148 68.1398C38.5567 69.3179 39.2236 68.5425 39.5858 72.0713C39.9537 75.6538 40.2838 78.976 41.4384 82.2548C45.4963 81.303 49.2732 79.6183 52.6199 77.3479V77.347ZM42.8674 69.2113C43.4994 69.1821 44.0116 69.6876 44.0116 70.2791C44.0116 70.8686 43.4994 71.3497 42.8674 71.3553C42.2355 71.3987 41.7233 70.9865 41.7233 70.4092C41.7233 69.8291 42.2345 69.2396 42.8674 69.2113ZM44.2984 72.9995C44.8738 72.7976 45.5284 72.8702 46.1689 72.8551C46.5877 72.8448 46.9952 72.8957 47.3234 73.0145C47.6385 73.1296 47.8866 73.322 47.9865 73.6126C48.0865 73.9031 48.029 74.2351 47.8366 74.5087C47.6507 74.7728 47.3187 74.9765 46.9018 74.9888C46.2594 75.0067 45.601 74.9124 45.0238 75.1114C44.4465 75.3104 43.9843 75.7896 43.4674 76.1698C43.1306 76.4169 42.7448 76.4612 42.4354 76.366C42.1147 76.2679 41.8666 76.0405 41.7667 75.75C41.6667 75.4595 41.7431 75.1558 41.9223 74.8747C42.1091 74.5832 42.4043 74.3059 42.7411 74.0578C43.258 73.6777 43.7211 73.2013 44.2974 73.0004L44.2984 72.9995ZM49.1788 75.3387C49.8108 75.3095 50.323 75.8151 50.323 76.4075C50.323 76.997 49.8108 77.4781 49.1788 77.4837C48.5468 77.5271 48.0347 77.1149 48.0347 76.5376C48.0347 75.9575 48.5459 75.368 49.1788 75.3387ZM46.0236 77.2592C46.6556 77.23 47.1678 77.7356 47.1678 78.328C47.1678 78.9175 46.6556 79.3986 46.0236 79.4033C45.3916 79.4467 44.8794 79.0354 44.8794 78.4572C44.8794 77.8771 45.3916 77.2875 46.0236 77.2583V77.2592ZM42.3024 77.7903C42.9344 77.7611 43.4466 78.2666 43.4466 78.859C43.4466 79.4486 42.9344 79.9296 42.3024 79.9343C41.6704 79.9777 41.1583 79.5665 41.1583 78.9882C41.1583 78.4081 41.6704 77.8186 42.3024 77.7893V77.7903Z" fill="#D76C32"/>
<path fill-rule="evenodd" clip-rule="evenodd" d="M37.5394 82.9281C36.6291 78.9466 37.0725 74.267 37.1366 69.3687C36.0245 69.5582 34.8813 69.6564 33.7154 69.6564C29.6518 69.6564 30.6686 68.5301 29.7301 73.1587L27.8105 82.6272C29.7282 82.9658 31.7015 83.1432 33.7154 83.1432C35.0086 83.1432 36.2848 83.0705 37.5394 82.929V82.9281ZM32.9466 78.5589C33.556 78.5985 34.1672 78.3344 34.7907 78.1835C35.1963 78.0854 35.5698 78.1948 35.8189 78.4004C36.0764 78.6136 36.2188 78.9192 36.199 79.2258C36.1792 79.5323 35.9905 79.7832 35.716 79.9766C35.4302 80.1785 35.051 80.335 34.6445 80.4341C34.0219 80.5869 33.4098 80.8303 32.8014 80.7869C32.192 80.7435 31.6204 80.4067 31.0214 80.1756C30.6319 80.0257 30.2734 79.8351 30.0168 79.6031C29.7697 79.3786 29.616 79.106 29.6358 78.7994C29.6556 78.4929 29.8348 78.208 30.1187 78.0288C30.3923 77.8561 30.7762 77.7967 31.1657 77.9467C31.7647 78.1778 32.3354 78.5183 32.9457 78.5589H32.9466ZM32.9174 71.7796C33.5494 71.7504 34.0616 72.256 34.0616 72.8484C34.0616 73.4379 33.5494 73.919 32.9174 73.9237C32.2854 73.9671 31.7732 73.5558 31.7732 72.9776C31.7732 72.3975 32.2854 71.8079 32.9174 71.7787V71.7796Z" fill="#CA6131"/>
<path fill-rule="evenodd" clip-rule="evenodd" d="M22.7417 81.3176C23.901 78.5143 29.5068 69.5259 26.2686 68.2431C21.3702 66.3037 17.4094 62.5052 15.256 57.719C14.7975 57.4945 14.3316 57.3219 14.0863 57.2568C13.6826 57.1503 13.2723 57.1738 12.8761 57.3012C12.4356 57.4417 12.0017 57.7106 11.5999 58.0765C10.7896 58.8132 10.1397 59.9121 9.81145 61.1582C9.6011 61.9581 9.25209 62.9032 8.7814 63.7974C8.24186 64.8237 7.53158 65.8028 6.66283 66.4773C6.1846 66.8489 5.66486 67.1272 5.10645 67.279C9.1672 73.7734 15.3777 78.7859 22.7417 81.3186V81.3176ZM22.8398 73.8621C22.4333 74.4337 22.0277 75.0063 21.6211 75.5779C21.2155 76.1495 20.809 76.7221 20.4024 77.2927C20.3232 77.405 19.9176 77.6983 19.7582 77.5852C19.4648 77.3767 19.1715 77.1673 18.8781 76.9598C18.5848 76.7513 18.1037 76.5174 18.2773 75.941C18.6197 74.8072 19.4261 73.7112 19.4261 73.7112C19.4261 73.7112 19.978 73.1763 20.4053 72.9462C21.0816 72.5821 21.7937 72.018 22.3173 72.1199C22.6766 72.1897 22.8521 72.6094 23.1256 72.8471C23.2737 72.9764 22.92 73.7508 22.8398 73.863V73.8621ZM17.0963 66.4839C16.4643 66.5273 15.9521 66.116 15.9521 65.5378C15.9521 64.9577 16.4643 64.3681 17.0963 64.3389C17.7283 64.3096 18.2405 64.8152 18.2405 65.4076C18.2405 65.9971 17.7283 66.4782 17.0963 66.4829V66.4839ZM14.4693 63.2447C13.8373 63.2881 13.3251 62.8768 13.3251 62.2986C13.3251 61.7185 13.8373 61.129 14.4693 61.0997C15.1013 61.0705 15.6135 61.5761 15.6135 62.1684C15.6135 62.758 15.1013 63.239 14.4693 63.2437V63.2447ZM18.6781 69.6542C18.9753 69.8655 19.0592 70.4295 18.8875 71.1643C18.7338 71.8199 17.9358 73.098 17.9358 73.098C17.9358 73.098 16.9916 74.2733 16.4218 74.6337C15.7851 75.0374 15.2239 75.143 14.9277 74.9317C14.6315 74.7205 14.5466 74.1573 14.7183 73.4225C14.8721 72.767 15.6701 71.4898 15.6701 71.4898C15.6701 71.4898 16.6143 70.3145 17.1831 69.9532C17.8198 69.5495 18.3801 69.4438 18.6772 69.6542H18.6781ZM13.3223 64.5219C13.4581 64.6464 9.52847 69.1524 9.52847 69.1524C9.52847 69.1524 9.3002 69.1778 9.18041 69.0354C8.95968 68.7732 8.74085 68.5091 8.51824 68.2506C8.29562 67.9912 8.05698 67.7488 7.80324 67.5233C7.66458 67.4007 7.54384 67.3102 7.54384 67.3102C7.54384 67.3102 8.26261 66.7489 9.14268 66.0641C10.7604 64.803 12.3224 63.6041 12.5724 63.8342C12.8224 64.0634 13.0733 64.2936 13.3232 64.5228L13.3223 64.5219ZM25.231 70.4107C25.3046 70.9955 24.8556 71.5369 24.2302 71.6209C23.6086 71.7426 23.0492 71.3983 22.9775 70.8248C22.9058 70.2494 23.3398 69.6004 23.9633 69.4929C24.5867 69.3853 25.1574 69.823 25.231 70.4107ZM21.6211 67.6611C21.6947 68.2459 21.2457 68.7873 20.6203 68.8713C19.9987 68.993 19.4394 68.6487 19.3677 68.0752C19.295 67.4998 19.7299 66.8508 20.3534 66.7433C20.9778 66.6357 21.5485 67.0734 21.6221 67.6611H21.6211ZM15.5871 67.0187C15.9351 67.3139 15.4107 68.161 15.4229 68.743C15.4276 68.9543 15.5465 69.1165 15.4503 69.2231C14.9551 69.7617 14.4608 70.3013 13.9665 70.8399C13.4723 71.3785 12.977 71.918 12.4828 72.4566C12.3856 72.5623 12.0989 72.584 12.0857 72.3802C12.0498 71.8209 12.6158 70.9568 12.2668 70.6371C11.9168 70.3173 11.1047 70.9568 10.5444 70.9681C10.3406 70.9719 10.3387 70.6833 10.4359 70.5776C10.9302 70.039 11.4254 69.5004 11.9196 68.9618C12.4139 68.4232 12.9091 67.8837 13.4034 67.3451C13.5006 67.2394 13.6619 67.3536 13.8665 67.3498C14.4259 67.3385 15.2267 66.7131 15.588 67.0196L15.5871 67.0187Z" fill="#BC5630"/>
<path fill-rule="evenodd" clip-rule="evenodd" d="M7.51688 60.5536C7.96116 58.8633 8.8648 57.354 10.0024 56.3202C10.6476 55.7335 11.3767 55.2911 12.1521 55.043C12.8227 54.828 13.5208 54.7591 14.2235 54.8657C14.1509 54.6044 14.0829 54.3403 14.0207 54.0752C13.599 54.0281 13.201 53.9356 12.8803 53.7809C12.5266 53.6102 12.2634 53.3537 12.1841 53.0018C12.1049 52.65 12.2134 52.2689 12.4728 51.9727C14.8602 49.2523 14.049 49.6976 12.1002 48.7581C11.7465 48.5873 11.4833 48.3308 11.4041 47.9789C11.3248 47.6271 11.4333 47.246 11.6927 46.9498C11.9436 46.664 12.3568 46.4697 12.8454 46.5093C15.8072 46.7517 13.6717 44.2917 12.7209 43.538C12.4134 43.2937 12.2134 42.9853 12.2134 42.625C12.2134 42.2637 12.402 41.9166 12.7209 41.6845C13.0284 41.461 13.4745 41.3619 13.9424 41.5081C17.2108 42.5306 15.6082 39.7904 14.6697 38.6265C14.4235 38.3208 14.2961 37.9756 14.3754 37.6238C14.4546 37.2719 14.7159 36.9739 15.0771 36.8182C15.4262 36.6673 15.8827 36.6692 16.3081 36.9154C17.9843 37.8869 19.0511 36.3805 18.1994 34.6468C18.0258 34.295 17.9777 33.9299 18.1324 33.6045C18.2871 33.2781 18.6068 33.0452 18.9945 32.9725C19.3681 32.9027 19.8133 33.0046 20.1736 33.3376C21.3602 34.4355 22.0696 33.2574 21.6753 31.6086C21.5838 31.2265 21.6168 30.8606 21.8394 30.5766C22.062 30.2927 22.4252 30.1352 22.8195 30.1503C23.1996 30.1644 23.6118 30.3616 23.8891 30.7662C24.7909 32.0783 26.9444 30.8474 25.0984 29.0353C23.709 27.6714 21.1018 27.4544 18.754 27.2592C16.7165 27.0894 14.8357 26.9328 13.5707 26.1622C11.2767 24.7642 12.7595 22.9409 11.2975 24.2445C4.36543 30.4191 0 39.4141 0 49.4278C0 55.0393 1.37056 60.33 3.7957 64.985C4.30317 65.1058 4.78235 64.9341 5.21437 64.5993C5.78316 64.1578 6.2812 63.4532 6.68209 62.691C7.06411 61.9638 7.34709 61.1997 7.51782 60.5526L7.51688 60.5536ZM5.12381 56.1174C6.44061 56.0995 7.50839 57.1173 7.50839 58.3501C7.50839 59.582 6.44061 60.5819 5.12381 60.5819C3.80702 60.5791 2.7383 59.4519 2.7383 58.3199C2.7383 57.1852 3.80607 56.1344 5.12381 56.1174ZM7.50461 53.4678C7.17542 52.7896 6.74623 52.1463 6.64624 51.4369C6.54626 50.7257 6.79339 49.9862 6.9113 49.241C6.98865 48.7562 7.11882 48.2977 7.32256 47.9459C7.51876 47.6063 7.79514 47.363 8.15169 47.3111C8.50919 47.2592 8.87989 47.395 9.15627 47.6771C9.42227 47.9487 9.58451 48.3751 9.50811 48.8599C9.3902 49.6051 9.13835 50.3456 9.24305 51.0559C9.34681 51.7661 9.80052 52.4028 10.1278 53.0829C10.341 53.5244 10.3061 53.9809 10.1307 54.3177C9.94861 54.6667 9.63262 54.9044 9.27512 54.9572C8.91762 55.0091 8.58371 54.8544 8.29318 54.5874C7.99134 54.3092 7.71874 53.9111 7.50367 53.4687L7.50461 53.4678ZM14.332 35.974C13.9509 36.0815 13.5085 35.9712 13.1359 35.6759C12.7633 35.3807 12.5549 34.976 12.5718 34.5808C12.5879 34.2035 12.8237 33.8234 13.2293 33.5432C13.8443 33.1178 14.5697 32.799 15.0158 32.2358C15.462 31.6727 15.6054 30.8936 15.8789 30.1974C16.0591 29.7381 16.3751 29.4221 16.7382 29.3202C17.1193 29.2127 17.5598 29.323 17.9333 29.6183C18.3059 29.9135 18.5163 30.3182 18.4993 30.7144C18.4833 31.0917 18.2484 31.4718 17.8419 31.7519C17.2268 32.1764 16.5015 32.4952 16.0553 33.0593C15.6091 33.6224 15.4648 34.4016 15.1913 35.0977C15.0111 35.5571 14.6961 35.874 14.332 35.9759V35.974ZM4.30506 52.6792C4.70217 53.1329 4.63049 53.8432 4.14659 54.2677C3.66175 54.6912 2.9477 54.6676 2.55153 54.2139C2.15442 53.7602 2.2261 53.0499 2.71 52.6254C3.19389 52.2019 3.90889 52.2255 4.30506 52.6792ZM3.73155 48.8769C4.12867 49.3306 4.05793 50.0409 3.57309 50.4654C3.08825 50.8889 2.3742 50.8644 1.97803 50.4116C1.58091 49.9579 1.65166 49.2467 2.1365 48.8231C2.62133 48.3996 3.33538 48.4232 3.73155 48.8769ZM3.45612 46.6631C2.97128 47.0866 2.25723 47.063 1.86106 46.6093C1.46395 46.1556 1.53564 45.4453 2.01953 45.0208C2.50437 44.5973 3.21842 44.6209 3.61553 45.0746C4.01265 45.5283 3.94096 46.2386 3.45707 46.6631H3.45612ZM5.56809 41.8864C5.56809 42.7768 4.79744 43.4994 3.84569 43.4994C2.89394 43.4994 2.12329 42.7768 2.12329 41.8864C2.12329 40.995 2.89394 40.2725 3.84569 40.2725C4.79744 40.2725 5.56809 40.995 5.56809 41.8864ZM6.17556 37.105C6.17556 37.7077 5.65487 38.1963 5.01062 38.1963C4.36732 38.1963 3.84569 37.7077 3.84569 37.105C3.84569 36.5022 4.36732 36.0136 5.01062 36.0136C5.65487 36.0136 6.17556 36.5022 6.17556 37.105ZM8.06963 33.9696C8.06963 34.5723 7.548 35.0609 6.9047 35.0609C6.26045 35.0609 5.73882 34.5723 5.73882 33.9696C5.73882 33.3668 6.26045 32.8782 6.9047 32.8782C7.548 32.8782 8.06963 33.3668 8.06963 33.9696ZM7.59422 41.6911C7.6461 40.9393 7.59517 40.1678 7.86211 39.5027C8.12905 38.8368 8.71199 38.318 9.18551 37.7313C9.49396 37.3493 9.83542 37.0163 10.1873 36.8126C10.5268 36.6164 10.8872 36.5428 11.223 36.6748C11.5588 36.8069 11.8125 37.1106 11.9115 37.4917C12.0068 37.8596 11.9351 38.3105 11.6267 38.6925C11.1532 39.2792 10.5665 39.7961 10.3033 40.4639C10.0401 41.1318 10.1156 41.91 10.0609 42.6627C10.025 43.1513 9.76939 43.5305 9.44868 43.7342C9.1176 43.9455 8.72426 43.9955 8.38845 43.8635C8.05265 43.7314 7.83947 43.4305 7.72156 43.0541C7.598 42.6617 7.55932 42.1816 7.59422 41.6902V41.6911ZM9.91277 30.6134C9.91277 31.2162 9.39114 31.7048 8.74784 31.7048C8.10359 31.7048 7.5829 31.2162 7.5829 30.6134C7.5829 30.0107 8.10359 29.5221 8.74784 29.5221C9.39114 29.5221 9.91277 30.0107 9.91277 30.6134ZM12.2426 28.1864C12.2426 28.7891 11.722 29.2778 11.0777 29.2778C10.4344 29.2778 9.91277 28.7891 9.91277 28.1864C9.91277 27.5837 10.4344 27.095 11.0777 27.095C11.722 27.095 12.2426 27.5837 12.2426 28.1864Z" fill="#AF4B2E"/>
<path fill-rule="evenodd" clip-rule="evenodd" d="M51.1588 0C52.7491 11.9097 45.07 11.6418 39.5302 13.9018C38.5841 13.8594 39.2454 12.6907 39.4708 12.2379C41.1262 8.90913 43.99 6.85187 47.8621 5.76995C41.7762 7.26219 36.9014 11.838 34.9884 17.7475C32.6105 0.598029 49.3657 3.34953 51.1588 0V0Z" fill="#F58634"/>
<path fill-rule="evenodd" clip-rule="evenodd" d="M30.6084 9.28688C31.8733 8.74262 32.5638 7.85689 33.0288 6.83817C33.0288 6.83817 33.2392 6.69385 33.3344 7.0089C34.705 9.69343 35.5719 13.0496 34.7163 16.6123C34.3956 16.4057 34.0749 16.1991 33.7542 15.9926C34.1287 12.3591 32.4817 10.8848 30.1745 10.1443C29.5067 9.65381 30.2585 9.43781 30.6084 9.28783V9.28688Z" fill="#F58634"/>
</svg>
